<svg xmlns="http://www.w3.org/2000/svg" viewBox="0 247 1920 468.8" enable-background="new 0 247 1920 468.8"><path fill="#404041" d="M519.2 247h226.4v63.7H611.5v51.4h114.1V422H611.5v120.8h-92.3zM962.4 247h91.3v175.9c0 17.1-2.9 34.2-8.6 49.5s-14.3 29.5-25.7 40.9c-11.4 11.4-23.8 20-37.1 24.7-18.1 6.7-39 9.5-63.7 9.5-14.3 0-30.4-1-47.5-2.9s-31.4-5.7-42.8-12.4c-11.4-5.7-21.9-14.3-31.4-25.7s-16.2-22.8-19-34.2c-5.7-19-8.6-35.2-8.6-50.4V247h91.3v180.7c0 16.2 4.8 28.5 13.3 38 8.6 9.5 20.9 13.3 37.1 13.3 16.2 0 28.5-4.8 37.1-13.3s13.3-21.9 13.3-38V247h1zM1085.1 542.8V247h152.2c28.5 0 49.5 2.9 64.7 7.6 15.2 4.8 26.6 14.3 36.1 26.6 9.5 13.3 13.3 29.5 13.3 47.5 0 16.2-3.8 30.4-10.5 42.8s-16.2 21.9-28.5 28.5c-7.6 4.8-18.1 8.6-32.3 11.4 10.5 3.8 19 7.6 23.8 10.5 3.8 2.9 8.6 7.6 14.3 15.2 6.7 7.6 10.5 14.3 12.4 18.1l44.7 85.6h-103.7l-48.5-90.3c-6.7-11.4-11.4-19-16.2-22.8-6.7-4.8-14.3-6.7-22.8-6.7h-7.6v119.8h-91.3l-.1 2zm91.2-176h39c3.8 0 12.4-1 23.8-3.8 5.7-1 11.4-4.8 15.2-9.5 3.8-4.8 5.7-10.5 5.7-17.1 0-9.5-2.9-17.1-9.5-21.9-5.7-4.8-17.1-7.6-34.2-7.6h-39.9l-.1 59.9zM1364.6 444.8l86.5-5.7c1.9 14.3 5.7 24.7 11.4 32.3 9.5 12.4 22.8 18.1 39.9 18.1 13.3 0 22.8-2.9 30.4-9.5 6.7-5.7 10.5-13.3 10.5-20.9s-3.8-14.3-10.5-20.9c-6.7-5.7-21.9-13.3-46.6-17.1-40.9-6.7-69.4-15.2-85.6-36.1-14.3-18.1-25.7-34.2-25.7-57.1 0-15.2 4.8-29.5 13.3-42.8 8.6-13.3 21.9-23.8 39.9-32.3 18.1-7.6 41.8-11.4 73.2-11.4 38 0 66.6 6.7 86.5 20.9s31.4 36.1 35.2 67.5l-86.5 4.8c-1.9-13.3-6.7-22.8-14.3-29.5-7.6-5.7-17.1-9.5-30.4-9.5-10.5 0-19 1.9-23.8 6.7-5.7 4.8-7.6 10.5-7.6 16.2 0 4.8 1.9 8.6 6.7 12.4 4.8 3.8 14.3 7.6 30.4 10.5 39.9 8.6 68.5 17.1 85.6 25.7s29.5 20 38 32.3c7.6 13.3 11.4 27.6 11.4 43.7 0 19-5.7 36.1-16.2 52.3-10.5 16.2-24.7 28.5-43.7 36.1-19 8.6-42.8 12.4-71.3 12.4-50.4 0-85.6-9.5-104.6-29.5-18.8-14.4-30.2-39.2-32.1-69.6"/><path fill="#404041" d="M1642.3 247H1920v73.2h-93.2v222.6h-91.3V320.2h-93.2z"/><g fill="#404041"><path d="M524 623.6c0-17.1 5.7-33.3 29.5-33.3 17.1 0 24.7 8.6 24.7 22.8v12.4H562v-8.6c0-7.6-2.9-13.3-10.5-13.3-8.6 0-10.5 6.7-10.5 21.9v60.9c0 14.3 4.8 17.1 10.5 17.1 6.7 0 10.5-4.8 10.5-15.2v-8.6h16.2V694c0 13.3-5.7 22.8-25.7 22.8-21.9 0-28.5-11.4-28.5-31.4v-61.8zM592.5 623.6c0-17.1 5.7-33.3 29.5-33.3 21.9 0 29.5 11.4 29.5 31.4v62.8c0 17.1-5.7 33.3-29.5 33.3-21.9 0-29.5-11.4-29.5-31.4v-62.8zm18 64.7c0 10.5 4.8 16.2 12.4 16.2 7.6 0 12.4-5.7 12.4-16.2v-65.6c0-12.4-3.8-18.1-12.4-18.1-7.6 0-12.4 5.7-12.4 18.1v65.6z"/></g><path fill="#404041" d="M670.4 592.2h23.8l20 103.7V592.2h16.2v124.6h-24.7l-20-106.5v106.5h-15.2l-.1-124.6zM744.6 680.7h17.1v10.5c0 8.6 2.9 13.3 10.5 13.3 9.5 0 11.4-6.7 11.4-14.3 0-10.5-1-14.3-18.1-31.4-11.4-11.4-20-20.9-20-38 0-20 9.5-29.5 28.5-29.5 9.5 0 16.2 2.9 20 6.7 2.9 2.9 4.8 6.7 4.8 16.2v11.4h-16.2V616c0-6.7-2.9-11.4-9.5-11.4-6.7 0-10.5 3.8-10.5 13.3 0 8.6 1.9 13.3 18.1 30.4 17.1 18.1 20 23.8 20 39 0 20-7.6 30.4-28.5 30.4-16.2 0-26.6-6.7-26.6-21.9v-15.2h-1v.1z"/><g fill="#404041"><path d="M804.5 592.2h59v14.3h-20.9v110.3h-17.1V606.5h-20.9l-.1-14.3zM876.8 592.2h26.6c25.7 0 27.6 6.7 27.6 34.2 0 17.1-1.9 23.8-16.2 28.5 11.4 1 16.2 7.6 16.2 19v27.6c0 4.8 0 10.5 1 16.2h-16.2c-1.9-2.9-1.9-6.7-1.9-11.4v-28.5c0-11.4-1.9-15.2-13.3-15.2h-6.7v54.2h-17.1V592.2zm17.1 56.1h4.8c13.3 0 15.2-2.9 15.2-20.9s-1-20-11.4-20h-8.6v40.9zM1009 688.3c0 14.3-5.7 29.5-29.5 29.5S950 703.5 950 688.3v-96h17.1v99.9c0 8.6 2.9 12.4 12.4 12.4 8.6 0 12.4-4.8 12.4-12.4v-99.9h17.1v96zM1025.1 623.6c0-17.1 5.7-33.3 29.5-33.3 17.1 0 24.7 8.6 24.7 22.8v12.4h-16.2v-8.6c0-7.6-2.9-13.3-10.5-13.3-8.6 0-10.5 6.7-10.5 21.9v60.9c0 14.3 4.8 17.1 10.5 17.1 6.7 0 10.5-4.8 10.5-15.2v-8.6h16.2V694c0 13.3-5.7 22.8-25.7 22.8-21.9 0-28.5-11.4-28.5-31.4v-61.8zM1088.9 592.2h59v14.3H1127v110.3h-17.1V606.5H1089l-.1-14.3zM1161.1 592.2h17.1v124.6h-17.1V592.2zM1196.3 623.6c0-17.1 5.7-33.3 29.5-33.3 21.9 0 29.5 11.4 29.5 31.4v62.8c0 17.1-5.7 33.3-29.5 33.3-21.9 0-29.5-11.4-29.5-31.4v-62.8zm17.1 64.7c0 10.5 4.8 16.2 12.4 16.2s12.4-5.7 12.4-16.2v-65.6c0-12.4-3.8-18.1-12.4-18.1-7.6 0-12.4 5.7-12.4 18.1v65.6zM1273.3 592.2h23.8l20 103.7V592.2h16.2v124.6h-24.7l-20-106.5v106.5h-15.2l-.1-124.6zM1389.4 623.6c0-17.1 5.7-33.3 29.5-33.3 17.1 0 24.7 8.6 24.7 22.8v12.4h-16.2v-8.6c0-7.6-2.9-13.3-10.5-13.3-8.6 0-10.5 6.7-10.5 21.9v60.9c0 14.3 4.8 17.1 10.5 17.1 6.7 0 10.5-4.8 10.5-15.2v-8.6h16.2V694c0 13.3-5.7 22.8-25.7 22.8-21.9 0-28.5-11.4-28.5-31.4v-61.8z"/></g><path fill="#404041" d="M1458.8 623.6c0-17.1 5.7-33.3 29.5-33.3 21.9 0 29.5 11.4 29.5 31.4v62.8c0 17.1-5.7 33.3-29.5 33.3-21.9 0-29.5-11.4-29.5-31.4v-62.8zm17.1 64.7c0 10.5 4.8 16.2 12.4 16.2s12.4-5.7 12.4-16.2v-65.6c0-12.4-3.8-18.1-12.4-18.1-7.6 0-12.4 5.7-12.4 18.1v65.6zM1532 592.2h27.6l16.2 95.1 16.2-95.1h26.6v124.6h-16.2V604.6l-18.1 112.2h-17.1l-19-112.2v112.2H1533V592.2h-1zM1637.6 592.2h28.5c23.8 0 27.6 6.7 27.6 35.2s-4.8 35.2-27.6 35.2h-11.4v54.2h-17.1V592.2zm17.1 56.1h8.6c11.4 0 13.3-1.9 13.3-20.9s-1-20.9-13.3-20.9h-8.6v41.8zM1720.3 592.2h20l25.7 124.6h-17.1l-5.7-31.4h-26.6l-5.7 31.4h-18.1l27.5-124.6zm-1.9 78h21.9l-10.5-59.9-11.4 59.9z"/><g fill="#404041"><path d="M1777.4 592.2h23.8l20 103.7V592.2h16.2v124.6h-24.7l-20-106.5v106.5h-15.2l-.1-124.6zM1853.4 592.2h17.1l15.2 52.3 17.1-52.3h15.2l-23.8 73.2v51.4h-17.1v-51.4l-23.7-73.2z"/></g><path fill="#0071BC" d="M0 247v468.8h468.8V247H0zm401.3 395.6H75.1V316.4h326.2v326.2z"/></svg>