<?xml version="1.0"?>
<svg xmlns="http://www.w3.org/2000/svg" xmlns:xlink="http://www.w3.org/1999/xlink" xmlns:svgjs="http://svgjs.com/svgjs" version="1.1" width="512" height="512" x="0" y="0" viewBox="0 0 271.673 271.673" style="enable-background:new 0 0 512 512" xml:space="preserve" class=""><g>
<g xmlns="http://www.w3.org/2000/svg">
	<path style="" d="M10.449,0h104.49c5.771,0,10.449,4.678,10.449,10.449v104.49c0,5.771-4.678,10.449-10.449,10.449   H10.449C4.678,125.388,0,120.71,0,114.939V10.449C0,4.678,4.678,0,10.449,0z" fill="#0075af" data-original="#00efd1" class=""/>
	<path style="" d="M156.735,0h104.49c5.771,0,10.449,4.678,10.449,10.449v104.49c0,5.771-4.678,10.449-10.449,10.449   h-104.49c-5.771,0-10.449-4.678-10.449-10.449V10.449C146.286,4.678,150.964,0,156.735,0z" fill="#0075af" data-original="#00efd1" class=""/>
	<path style="" d="M10.449,146.286h104.49c5.771,0,10.449,4.678,10.449,10.449v104.49   c0,5.771-4.678,10.449-10.449,10.449H10.449C4.678,271.673,0,266.995,0,261.224v-104.49C0,150.964,4.678,146.286,10.449,146.286z" fill="#0075af" data-original="#00efd1" class=""/>
	<path style="" d="M156.735,146.286h104.49c5.771,0,10.449,4.678,10.449,10.449v104.49   c0,5.771-4.678,10.449-10.449,10.449h-104.49c-5.771,0-10.449-4.678-10.449-10.449v-104.49   C146.286,150.964,150.964,146.286,156.735,146.286z" fill="#0075af" data-original="#00efd1" class=""/>
</g>
<g xmlns="http://www.w3.org/2000/svg">
</g>
<g xmlns="http://www.w3.org/2000/svg">
</g>
<g xmlns="http://www.w3.org/2000/svg">
</g>
<g xmlns="http://www.w3.org/2000/svg">
</g>
<g xmlns="http://www.w3.org/2000/svg">
</g>
<g xmlns="http://www.w3.org/2000/svg">
</g>
<g xmlns="http://www.w3.org/2000/svg">
</g>
<g xmlns="http://www.w3.org/2000/svg">
</g>
<g xmlns="http://www.w3.org/2000/svg">
</g>
<g xmlns="http://www.w3.org/2000/svg">
</g>
<g xmlns="http://www.w3.org/2000/svg">
</g>
<g xmlns="http://www.w3.org/2000/svg">
</g>
<g xmlns="http://www.w3.org/2000/svg">
</g>
<g xmlns="http://www.w3.org/2000/svg">
</g>
<g xmlns="http://www.w3.org/2000/svg">
</g>
</g></svg>
